<?xml version="1.0" encoding="utf-8"?>
<svg viewBox="56.162 69.665 394.195 315.356" xmlns="http://www.w3.org/2000/svg">
  <path d="M 253.26 69.665 C 264.162 69.665 272.97 78.473 272.97 89.375 L 272.97 128.794 L 346.881 128.794 C 371.395 128.794 391.228 148.627 391.228 173.141 L 391.228 340.674 C 391.228 365.188 371.395 385.021 346.881 385.021 L 159.638 385.021 C 135.124 385.021 115.291 365.188 115.291 340.674 L 115.291 173.141 C 115.291 148.627 135.124 128.794 159.638 128.794 L 233.55 128.794 L 233.55 89.375 C 233.55 78.473 242.358 69.665 253.26 69.665 Z M 184.276 306.182 C 178.855 306.182 174.421 310.617 174.421 316.037 C 174.421 321.457 178.855 325.892 184.276 325.892 L 203.985 325.892 C 209.405 325.892 213.84 321.457 213.84 316.037 C 213.84 310.617 209.405 306.182 203.985 306.182 L 184.276 306.182 Z M 243.405 306.182 C 237.985 306.182 233.55 310.617 233.55 316.037 C 233.55 321.457 237.985 325.892 243.405 325.892 L 263.115 325.892 C 268.535 325.892 272.97 321.457 272.97 316.037 C 272.97 310.617 268.535 306.182 263.115 306.182 L 243.405 306.182 Z M 302.534 306.182 C 297.114 306.182 292.679 310.617 292.679 316.037 C 292.679 321.457 297.114 325.892 302.534 325.892 L 322.244 325.892 C 327.664 325.892 332.099 321.457 332.099 316.037 C 332.099 310.617 327.664 306.182 322.244 306.182 L 302.534 306.182 Z M 218.768 227.343 C 218.768 208.377 198.237 196.524 181.812 206.007 C 174.189 210.408 169.493 218.542 169.493 227.343 C 169.493 246.309 190.024 258.163 206.449 248.68 C 214.072 244.279 218.768 236.145 218.768 227.343 Z M 312.389 251.98 C 331.355 251.98 343.208 231.45 333.726 215.025 C 329.325 207.402 321.191 202.706 312.389 202.706 C 293.423 202.706 281.57 223.237 291.053 239.662 C 295.453 247.285 303.587 251.98 312.389 251.98 Z M 85.727 207.633 L 95.582 207.633 L 95.582 325.892 L 85.727 325.892 C 69.405 325.892 56.162 312.65 56.162 296.327 L 56.162 237.198 C 56.162 220.876 69.405 207.633 85.727 207.633 Z M 420.793 207.633 C 437.115 207.633 450.357 220.876 450.357 237.198 L 450.357 296.327 C 450.357 312.65 437.115 325.892 420.793 325.892 L 410.938 325.892 L 410.938 207.633 L 420.793 207.633 Z" style=""/>
</svg>